<?xml version="1.0" encoding="UTF-8"?>
<!DOCTYPE svg PUBLIC "-//W3C//DTD SVG 1.1//EN" "http://www.w3.org/Graphics/SVG/1.1/DTD/svg11.dtd">
<svg xmlns="http://www.w3.org/2000/svg" version="1.1" width="945px" height="945px" style="shape-rendering:geometricPrecision; text-rendering:geometricPrecision; image-rendering:optimizeQuality; fill-rule:evenodd; clip-rule:evenodd" xmlns:xlink="http://www.w3.org/1999/xlink">
<g><path style="opacity:0.995" fill="#0067e1" d="M 442.5,23.5 C 567.217,17.5683 676.55,55.0683 770.5,136C 860.474,218.123 910.307,320.29 920,442.5C 926.425,567.236 889.091,676.569 808,770.5C 725.877,860.474 623.71,910.307 501.5,920C 376.764,926.425 267.431,889.091 173.5,808C 83.526,725.877 33.6927,623.71 24,501.5C 17.5754,376.764 54.9088,267.431 136,173.5C 218.315,83.5952 320.481,33.5952 442.5,23.5 Z"/></g>
<g><path style="opacity:1" fill="#fefefe" d="M 457.5,152.5 C 568.565,151.284 657.065,194.951 723,283.5C 779.584,366.766 795.917,457.433 772,555.5C 744.401,653.907 684.234,724.407 591.5,767C 485.596,808.802 385.929,797.468 292.5,733C 202.364,662.875 158.864,570.375 162,455.5C 168.365,357.93 209.198,278.43 284.5,217C 335.583,177.806 393.249,156.306 457.5,152.5 Z"/></g>
<g><path style="opacity:1" fill="#0067e1" d="M 456.5,301.5 C 534.376,299.673 590.209,333.673 624,403.5C 644.164,456.214 641.164,507.547 615,557.5C 578.543,615.983 525.709,643.816 456.5,641C 383.845,629.909 336.011,589.409 313,519.5C 295.942,449.687 313.442,390.187 365.5,341C 392.029,319.069 422.363,305.902 456.5,301.5 Z"/></g>
</svg>
